<svg xmlns="http://www.w3.org/2000/svg" xmlns:xlink="http://www.w3.org/1999/xlink" width="219.782" height="219.828" viewBox="0 0 219.782 219.828"><defs><style>.a{fill:url(#a);}</style><linearGradient id="a" x1="1" y1="0.556" x2="-0.295" y2="1.743" gradientUnits="objectBoundingBox"><stop offset="0" stop-color="#38bff5"/><stop offset="1" stop-color="#1c607b"/></linearGradient></defs><g transform="translate(0 129.664)"><path class="a" d="M20.234,302H6.494a6.437,6.437,0,0,0-6.44,6.44v77.283a6.437,6.437,0,0,0,6.44,6.44H20.234a19.342,19.342,0,0,0,19.321-19.321V321.321A19.342,19.342,0,0,0,20.234,302Z" transform="translate(-0.054 -302)"/></g><g transform="translate(52.382 127.194)"><path class="a" d="M287.57,311.21a11.8,11.8,0,0,0-2.962-3.22c-4.742-4.148-12.732-3.756-17.388,1.288l-29.239,33.747-.9,1.03a19,19,0,0,1-14.168,6.183H172.934a6.44,6.44,0,0,1,0-12.881H212.22A12.918,12.918,0,0,0,225.1,324.478v-.129A12.892,12.892,0,0,0,212.22,311.6H188.906a17.728,17.728,0,0,1-11.335-4.251,45.141,45.141,0,0,0-55.515-2.962V383.6a148.672,148.672,0,0,0,39.156,5.281H218.66a45.143,45.143,0,0,0,36.066-18.033L285.64,329.63C290.149,323.709,290.489,315.59,287.57,311.21Z" transform="translate(-122.056 -296.246)"/></g><g transform="translate(42.506)"><path class="a" d="M229.238,12.449A36.829,36.829,0,0,0,201.356,0c-12.1,0-22.581,5.719-30.322,16.54-.58.811-1.124,1.623-1.632,2.425-.508-.8-1.051-1.614-1.632-2.425C160.029,5.719,149.544,0,137.448,0a36.828,36.828,0,0,0-27.882,12.449A42.937,42.937,0,0,0,99.054,41.127c0,11.818,4.586,22.723,14.431,34.32,8.591,10.118,20.913,20.518,35.18,32.56,5.272,4.45,10.725,9.052,16.518,14.073a6.44,6.44,0,0,0,8.436,0c5.793-5.02,11.244-9.622,16.517-14.071,9.163-7.734,17.077-14.413,23.944-20.892,13.333-12.579,25.67-26.857,25.67-45.99A42.936,42.936,0,0,0,229.238,12.449Z" transform="translate(-99.054 0)"/></g></svg>