<svg xmlns="http://www.w3.org/2000/svg" xmlns:xlink="http://www.w3.org/1999/xlink" width="233.306" height="233.306" viewBox="0 0 233.306 233.306"><defs><style>.a{fill:url(#a);}</style><linearGradient id="a" x1="0.5" x2="0.734" y2="0.714" gradientUnits="objectBoundingBox"><stop offset="0" stop-color="#38bff5"/><stop offset="1" stop-color="#1c607b"/></linearGradient></defs><path class="a" d="M52.605,97.211a48.605,48.605,0,1,1,48.605-48.605A48.66,48.66,0,0,1,52.605,97.211Z" transform="translate(34.884)"/><path class="a" d="M46.175,12.135A46.217,46.217,0,0,0,0,58.31V92.334a7.344,7.344,0,0,0,7.291,7.291h89.92V68.031a36.512,36.512,0,0,1,31.2-35.968A37.389,37.389,0,0,1,141.83,13.982c-9.721-2.78-10.246-1.847-95.655-1.847Z" transform="translate(0 104.518)"/><path class="a" d="M107.307,37.8H95.155V30.512A17.031,17.031,0,0,0,78.143,13.5h-24.3A17.031,17.031,0,0,0,36.829,30.512V37.8H24.677A16.91,16.91,0,0,0,12.5,42.984l53.5,27.909,53.5-27.909A16.91,16.91,0,0,0,107.307,37.8Zm-55.9,0V30.512a2.431,2.431,0,0,1,2.43-2.43h24.3a2.431,2.431,0,0,1,2.43,2.43V37.8Z" transform="translate(108.987 117.734)"/><path class="a" d="M73.7,46.642a7.3,7.3,0,0,1-6.737,0L12,17.965V59.62A17.031,17.031,0,0,0,29.012,76.632h82.629A17.031,17.031,0,0,0,128.653,59.62V17.965Z" transform="translate(104.653 156.674)"/></svg>