<svg xmlns="http://www.w3.org/2000/svg" xmlns:xlink="http://www.w3.org/1999/xlink" width="213.687" height="229.81" viewBox="0 0 213.687 229.81"><defs><style>.a{fill:url(#a);}</style><linearGradient id="a" x1="1.276" y1="0.307" x2="1.702" y2="0.646" gradientUnits="objectBoundingBox"><stop offset="0" stop-color="#31a3d1"/><stop offset="1" stop-color="#195269"/></linearGradient></defs><g transform="translate(0 45.867)"><path class="a" d="M97.75,108.338a20.319,20.319,0,0,0-14.584-6.149H38.188a20.126,20.126,0,0,0-20.226,19.858v61.825a8.416,8.416,0,0,0,16.832,0V122.087a1.827,1.827,0,0,1,3.654.011l0,60.738h0v80.718a10.1,10.1,0,0,0,20.2,0V182.837H63v80.718a10.1,10.1,0,0,0,20.2,0V209.59a15.152,15.152,0,0,1-7.8-13.24V134.493A26.849,26.849,0,0,1,97.75,108.338Z" transform="translate(-17.962 -102.189)"/></g><g transform="translate(25.419 5.427)"><circle class="a" cx="17.441" cy="17.441" r="17.441"/></g><g transform="translate(135.947 68.537)"><path class="a" d="M329.982,152.695l-9.14,9.126v58.266a8.407,8.407,0,0,0,9.14-8.379Z" transform="translate(-320.842 -152.695)"/></g><g transform="translate(148.74 45.868)"><path class="a" d="M394.064,102.191H362.286c-1,4.147-1.464,7.561-4.956,11.047l-7.986,7.978v142.34a10.1,10.1,0,0,0,20.2,0V182.838h4.36v80.718a10.1,10.1,0,0,0,20.2,0c0-131.837,0-59.5,0-141.5a1.625,1.625,0,0,1,1.584-1.772,1.772,1.772,0,0,1,1.777,1.762h0v61.825a8.416,8.416,0,0,0,16.831,0V122.006A20.118,20.118,0,0,0,394.064,102.191Z" transform="translate(-349.344 -102.191)"/></g><g transform="translate(163.449 5.431)"><path class="a" d="M388.651,12.136a15.1,15.1,0,0,1-.137,6.493l-6.4,26.575a17.44,17.44,0,1,0,6.537-33.068Z" transform="translate(-382.114 -12.1)"/></g><g transform="translate(64.164)"><path class="a" d="M253.846.233a8.43,8.43,0,0,0-10.152,6.212l-8.543,35.476L218.482,58.565c-15.5-.287-3.913-.217-37.342-.217a20.14,20.14,0,0,0-20.225,19.858V140.03a8.416,8.416,0,1,0,16.831,0c0-65.879-.046-61.889.075-62.375a1.817,1.817,0,0,1,3.577.441c0,12.342,0,58.667,0,60.9.005,0,0,80.712,0,80.718a10.1,10.1,0,0,0,20.2,0V138.994h4.36v80.718a10.1,10.1,0,0,0,20.2,0V74.4s-.072.356,22.57-22.252a8.467,8.467,0,0,0,2.235-3.984c.556-2.31,8.55-35.5,9.1-37.784A8.428,8.428,0,0,0,253.846.233Z" transform="translate(-160.915 0)"/></g><g transform="translate(89.582 17.906)"><path class="a" d="M234.984,39.893a17.441,17.441,0,1,0,17.441,17.441A17.44,17.44,0,0,0,234.984,39.893Z" transform="translate(-217.543 -39.893)"/></g></svg>