<svg xmlns="http://www.w3.org/2000/svg" xmlns:xlink="http://www.w3.org/1999/xlink" viewBox="0 0 117.68 126.56"><defs><style>.cls-1{fill:url(#linear-gradient);}.cls-2{fill:url(#linear-gradient-2);}.cls-3{fill:url(#linear-gradient-3);}.cls-4{fill:url(#linear-gradient-4);}.cls-5{fill:url(#linear-gradient-5);}.cls-6{fill:url(#linear-gradient-6);}.cls-7{fill:url(#linear-gradient-7);}</style><linearGradient id="linear-gradient" x1="-236.78" y1="470.81" x2="-235.42" y2="469.73" gradientTransform="matrix(43.94, 0, 0, -94.43, 10402.11, 44479.73)" gradientUnits="userSpaceOnUse"><stop offset="0.37" stop-color="#31a3d0"/><stop offset="0.47" stop-color="#2b8db4"/><stop offset="0.62" stop-color="#237394"/><stop offset="0.76" stop-color="#1e617c"/><stop offset="0.89" stop-color="#1b566e"/><stop offset="1" stop-color="#1a5269"/></linearGradient><linearGradient id="linear-gradient-2" x1="-229.34" y1="457.25" x2="-228.13" y2="456.29" gradientTransform="matrix(19.21, 0, 0, -19.21, 4425.53, 8793.44)" gradientUnits="userSpaceOnUse"><stop offset="0.15" stop-color="#31a3d0"/><stop offset="0.15" stop-color="#31a3cf"/><stop offset="0.42" stop-color="#2780a3"/><stop offset="0.66" stop-color="#206784"/><stop offset="0.86" stop-color="#1c5870"/><stop offset="1" stop-color="#1a5269"/></linearGradient><linearGradient id="linear-gradient-3" x1="-193.25" y1="464.78" x2="-192.69" y2="464.34" gradientTransform="matrix(5.03, 0, 0, -37.13, 1052.14, 17325.78)" gradientUnits="userSpaceOnUse"><stop offset="0" stop-color="#31a3d0"/><stop offset="0.12" stop-color="#30a0cc"/><stop offset="0.24" stop-color="#2e97c1"/><stop offset="0.35" stop-color="#2988ae"/><stop offset="0.46" stop-color="#237393"/><stop offset="0.57" stop-color="#1c5870"/><stop offset="0.59" stop-color="#1a5269"/></linearGradient><linearGradient id="linear-gradient-4" x1="-235.09" y1="470.34" x2="-234.66" y2="470" gradientTransform="matrix(35.77, 0, 0, -94.43, 8504.28, 44478.78)" gradientUnits="userSpaceOnUse"><stop offset="0" stop-color="#31a3d0"/><stop offset="0.3" stop-color="#31a2ce"/><stop offset="0.4" stop-color="#2f9cc7"/><stop offset="0.48" stop-color="#2c93bc"/><stop offset="0.54" stop-color="#2986ab"/><stop offset="0.59" stop-color="#247495"/><stop offset="0.64" stop-color="#1e5f7a"/><stop offset="0.66" stop-color="#1a5269"/></linearGradient><linearGradient id="linear-gradient-5" x1="-224.45" y1="457.15" x2="-218.3" y2="452.26" gradientTransform="matrix(13.81, 0, 0, -19.2, 3192.65, 8789.74)" gradientUnits="userSpaceOnUse"><stop offset="0" stop-color="#31a3d0"/><stop offset="0.02" stop-color="#2f9bc6"/><stop offset="0.07" stop-color="#2885aa"/><stop offset="0.12" stop-color="#1e627d"/><stop offset="0.14" stop-color="#1a5269"/></linearGradient><linearGradient id="linear-gradient-6" x1="-237.55" y1="471.39" x2="-237.09" y2="471.02" gradientTransform="matrix(54.73, 0, 0, -126.56, 13051.41, 59690.93)" gradientUnits="userSpaceOnUse"><stop offset="0" stop-color="#31a3d0"/><stop offset="0.26" stop-color="#30a1cd"/><stop offset="0.44" stop-color="#2e99c4"/><stop offset="0.61" stop-color="#2b8db4"/><stop offset="0.76" stop-color="#267b9d"/><stop offset="0.91" stop-color="#1f6581"/><stop offset="1" stop-color="#1a5269"/></linearGradient><linearGradient id="linear-gradient-7" x1="-229.21" y1="457.15" x2="-228.79" y2="456.81" gradientTransform="matrix(19.2, 0, 0, -19.2, 4458.45, 8795.57)" gradientUnits="userSpaceOnUse"><stop offset="0" stop-color="#31a3d0"/><stop offset="0.21" stop-color="#30a0cc"/><stop offset="0.4" stop-color="#2e97c1"/><stop offset="0.59" stop-color="#2988ae"/><stop offset="0.78" stop-color="#237393"/><stop offset="0.96" stop-color="#1c5870"/><stop offset="1" stop-color="#1a5269"/></linearGradient></defs><g id="Layer_2" data-name="Layer 2"><g id="Layer_1-2" data-name="Layer 1"><g id="Group_37" data-name="Group 37"><g id="Group_36" data-name="Group 36"><path id="Path_42" data-name="Path 42" class="cls-1" d="M43.94,28.65a11.2,11.2,0,0,0-8-3.39H11.14A11.08,11.08,0,0,0,0,36.2v34a4.64,4.64,0,0,0,9.27,0v-34h0a1,1,0,0,1,1-1,1,1,0,0,1,1,1V69.67h0v44.46a5.56,5.56,0,1,0,11.12,0h0V69.67h2.4v44.45a5.57,5.57,0,0,0,11.13,0V84.41a8.34,8.34,0,0,1-4.3-7.29V43.05A14.76,14.76,0,0,1,43.94,28.65Z"/></g></g><g id="Group_39" data-name="Group 39"><g id="Group_38" data-name="Group 38"><circle id="Ellipse_9" data-name="Ellipse 9" class="cls-2" cx="23.6" cy="12.59" r="9.6"/></g></g><g id="Group_41" data-name="Group 41"><g id="Group_40" data-name="Group 40"><path id="Path_43" data-name="Path 43" class="cls-3" d="M79.9,37.75l-5,5V74.86a4.62,4.62,0,0,0,5-4.2,2.82,2.82,0,0,0,0-.41Z"/></g></g><g id="Group_43" data-name="Group 43"><g id="Group_42" data-name="Group 42"><path id="Path_44" data-name="Path 44" class="cls-4" d="M106.54,25.26H89c-.55,2.28-.81,4.16-2.73,6.08l-4.4,4.4v78.38a5.56,5.56,0,1,0,11.12,0V69.67h2.4v44.45a5.57,5.57,0,0,0,11.13,0V36.2a.9.9,0,0,1,.82-1h.05a1,1,0,0,1,1,1h0V70.24a4.64,4.64,0,0,0,9.27,0V36.17A11.09,11.09,0,0,0,106.54,25.26Z"/></g></g><g id="Group_45" data-name="Group 45"><g id="Group_44" data-name="Group 44"><path id="Path_45" data-name="Path 45" class="cls-5" d="M93.61,3a8.31,8.31,0,0,1-.07,3.58L90,21.22A9.6,9.6,0,1,0,93.61,3Z"/></g></g><g id="Group_47" data-name="Group 47"><g id="Group_46" data-name="Group 46"><path id="Path_46" data-name="Path 46" class="cls-6" d="M86.51.13a4.64,4.64,0,0,0-5.59,3.42l-4.7,19.54L67,32.25c-8.54-.16-2.15-.12-20.56-.12A11.1,11.1,0,0,0,35.34,43.07V77.12a4.64,4.64,0,1,0,9.27.13v-.13c0-36.28,0-34.09,0-34.35a1,1,0,0,1,2,.24v78a5.56,5.56,0,0,0,11.12,0V76.55h2.4V121a5.56,5.56,0,0,0,11.12,0V41s0,.2,12.43-12.26a4.66,4.66,0,0,0,1.24-2.19c.3-1.27,4.7-19.55,5-20.81A4.65,4.65,0,0,0,86.51.13Z"/></g></g><g id="Group_49" data-name="Group 49"><g id="Group_48" data-name="Group 48"><path id="Path_47" data-name="Path 47" class="cls-7" d="M58.94,9.86a9.6,9.6,0,1,0,9.6,9.6,9.6,9.6,0,0,0-9.6-9.6Z"/></g></g></g></g></svg>